# xmcd CD database file
#
# Track frame offsets:
#	150
#	18828
#	31055
#	48590
#	65336
#	76153
#	90416
#	105149
#	122560
#	138475
#	149107
#	163997
#
# Disc length: 2412 seconds
#
# Revision: 0
# Processed by: cddbd v1.5.2PL0 Copyright (c) Steve Scherf et al.
# Submitted via: CDex 1.70beta2
#
DISCID=95096a0c
DTITLE=Dutch Swing College Band - Dixie Party
DYEAR=1900
DGENRE=Jazz
TTITLE0=Wolverine Blues
TTITLE1=Big butter and eggman
TTITLE2=You made me love you
TTITLE3=Mood Indigo
TTITLE4=Dolly walk
TTITLE5=Beale Street blues
TTITLE6=Strutti'with some barbecue
TTITLE7=The sheik of \Araby
TTITLE8=New Orleans function
TTITLE9=Bel ami 
TTITLE10=Blues for soprano
TTITLE11=Baby won't you please come home
EXTD=
EXTT0=
EXTT1=
EXTT2=
EXTT3=
EXTT4=
EXTT5=
EXTT6=
EXTT7=
EXTT8=
EXTT9=
EXTT10=
EXTT11=
PLAYORDER=
